<svg width="90" height="90" fill="none" xmlns="http://www.w3.org/2000/svg"><path fill="#fff" d="M0 0h90v90H0z"/><path d="m31.2371 13.0517.2667-.003c.291-.0031.582-.0052.873-.007l.3013-.002c.526-.0033 1.0519-.0058 1.5779-.0076.4354-.0016.8708-.0051 1.3062-.0102a159.5102 159.5102 0 0 1 1.5774-.0101c.2004-.0008.4008-.0027.6011-.0057.2802-.004.5603-.004.8405-.003L39.0644 13c.4029.0758.4029.0758.7081.3637.1934.3354.1934.3354.1856.7873-.1534.5522-.1534.5522-.4908.7947-.3467.048-.3467.048-.7724.0499l-.483.0051h-.523c-.179.0015-.358.0031-.5371.005-.4718.0045-.9436.007-1.4155.0089-.7534.0031-1.5068.0081-2.2602.0152-.2623.002-.5246.0025-.787.0029l-.4877.0038-.4269.0016c-.5342.042-1.0774.1122-1.4998.4607-.412.5683-.5463.8319-.5505 1.5296l-.0037.4587-.0022.506-.0037.5306c-.0034.4811-.006.9622-.0085 1.4433-.0027.5024-.0062 1.0049-.0095 1.5073-.0062.9519-.0118 1.9037-.0172 2.8556-.0062 1.0834-.013 2.1669-.0199 3.2504a10644.25 10644.25 0 0 0-.0403 6.6875l.4391-.0266.577-.0345.2885-.0174c3.633-.2163 7.52-.0523 10.9867 1.1397.5231.1735.8879.205 1.4212.0607.2104-.1202.4184-.2446.6233-.374.6686-.2175 1.3932-.1527 2.088-.1558l.4363-.0078c1.1426-.0052 2.0299.1375 2.893.9374.5389.6262.7836 1.3634.7377 2.1859-.1523.9171-.571 1.5317-1.2938 2.1046-.7962.5485-1.3388.4207-2.368.4207v3.4904h1.2465c.861.2313 1.5456.6139 2.035 1.3805.3783.7607.4774 1.4515.2557 2.2746-.2837.7472-.7463 1.2738-1.418 1.7053-.8028.3111-1.5489.2951-2.3997.296l-.4446.0093c-.9356.0031-1.6842-.1117-2.5161-.5547l-.1246-.1246v2.9918l.7479-.4986c.6252-.2084 1.2767-.1626 1.9315-.1683.1704-.0021.3407-.0055.511-.0103 1.1056-.0308 2.0009.0122 2.9179.6772.2809.2888.2809.2888.444.5688l.1719.2809c.3247.6697.3594 1.3672.1758 2.0837-.3076.8729-.7475 1.4075-1.5767 1.8221-.6362.2004-1.2965.1195-1.9575.1062v1.8699l.8102-.039c.8222 0 1.3245.1053 1.9323.6623.5755.5755.8842 1.3062.9193 2.1192-.0346.801-.3358 1.5656-.9193 2.1192-.8795.696-1.8339.6956-2.909.6696-.7614-.0003-1.1505.1458-1.73.6394-.2935.2462-.6049.3935-.9551.5453l-.3496.1548c-.2893.11-.2893.11-.5386.11l.1237.3433c.1895.6634.1522 1.3334.1412 2.0175l-.0034.4024c-.0029.3256-.007.6511-.0122.9766 3.5304-.0075 7.0607-.0172 10.591-.0294 1.6392-.0056 3.2784-.0105 4.9175-.0138 1.4286-.0028 2.8571-.007 4.2856-.0127.7565-.003 1.5131-.0053 2.2696-.0061.712-.0008 1.4239-.0033 2.1358-.0071.2614-.0011.5228-.0015.7842-.0013.3568.0002.7135-.0019 1.0703-.0045l.3138.0018c.6103-.0075 1.0252-.0919 1.5558-.4255.6854-.704.6417-1.4258.6429-2.3528l.0019-.3337c.0014-.2385.0024-.477.0033-.7154.0015-.3772.0039-.7544.0066-1.1316a985.31 985.31 0 0 0 .0186-3.2164c.0026-.6563.007-1.3125.0125-1.9687.0018-.2502.0029-.5004.0033-.7506.0006-.3492.0035-.6983.0069-1.0474l-.0012-.3144c.0103-.706.0103-.706.2208-.9692.3116-.2482.5601-.2732.9542-.289.3805.1556.5675.2704.7635.6341.1429.4756.1439.9293.1414 1.4212l.0013.3184c.0011.3468.0004.6935-.0004 1.0403.0001.2421.0004.4841.0007.7262.0004.5075-.0002 1.015-.0013 1.5225a419.683 419.683 0 0 0 .0008 1.9435c.0009.5002.0007 1.0004 0 1.5006-.0002.2387 0 .4774.0006.7161.0065 3.4042.0065 3.4042-1.1573 4.6585-.9458.9061-1.8836 1.1594-3.1739 1.1459l-.3438.001c-.3773.0006-.7545-.0014-1.1317-.0035a600.5884 600.5884 0 0 1-3.0205-.0045c-.7692-.0024-1.5383-.0026-2.3074-.003a2542.2362 2542.2362 0 0 1-4.3667-.008 3434.147 3434.147 0 0 0-4.9725-.0081 7746.3492 7746.3492 0 0 1-10.2262-.0189l-.0182.2814-.028.3712-.0261.367c-.1249.839-.7021 1.4757-1.3423 1.999-2.7451 1.8477-6.4958 2.4894-9.7423 2.521l-.2755.0038c-.3612-.0062-.6013-.0156-.8971-.2332-.2818-.4115-.3108-.6984-.261-1.1964.2983-.3942.5226-.5296.9973-.6233.1746-.0201.3496-.0362.5249-.0492 4.6109-.3457 4.6109-.3457 8.6652-2.3802.2857-.3381.2991-.667.2961-1.0898l-.0012-.3031-.0032-.3148-.0017-.3192a225.0076 225.0076 0 0 0-.0061-.7794l-.353.169c-3.3993 1.5836-7.2134 1.9796-10.9286 1.9736a225.0446 225.0446 0 0 0-.2625-.0002c-3.875-.0091-7.5975-.5299-11.1438-2.1424a90.9856 90.9856 0 0 0-.0233 1.083l-.0095.3085c-.0073.5956.0095.9986.4068 1.4757 2.0923 1.7343 5.4819 2.1017 8.0788 2.2897.8904.0675.8904.0675 1.2706.3281.2595.3336.2488.5133.2338.9427-.1091.4286-.1091.4286-.319.6401-.9413.5296-2.5066.1164-3.5299-.0401l-.4403-.0668c-2.6235-.4212-5.7554-1.0851-7.4132-3.3458-.4575-.732-.3938-1.6193-.3949-2.4527a295.7117 295.7117 0 0 1-.0022-1.0788 185.982 185.982 0 0 0-.0049-1.1079c-.0003-.2372-.0006-.4744-.0007-.7116L16 67.6042c.0046-1.2652.1898-2.0823 1.0818-3.0074.4813-.4294.9961-.7398 1.5675-1.0342l.4285-.2338c.3194-.1402.3194-.1402.6934-.1402l-.1247-.374a12.2016 12.2016 0 0 1-.0161-.643l-.0012-.3971.0008-.4285-.0004-.4401c-.0001-.3073.0002-.6145.0007-.9217.0007-.4712 0-.9422-.0008-1.4134.0001-.2981.0002-.5963.0005-.8945l-.0008-.4285.0012-.3971.0003-.3497c.0158-.2933.0158-.2933.1405-.6673l-.4753-.1324c-1.2552-.4231-2.3424-1.2005-3.0302-2.3437-.291-.7073-.2542-1.4733-.2552-2.2249l-.0013-.3501a296.9492 296.9492 0 0 1-.0009-.7311 187.361 187.361 0 0 0-.0049-1.112 847.0453 847.0453 0 0 1-.0007-.7129L16 47.894c.0041-1.122.1874-2.0134.9722-2.8657.5138-.494 1.0747-.8187 1.7131-1.1272l.2444-.1201c.1971-.0967.3946-.1927.5922-.2885l-.0004-.4379c.0004-.5414.0058-1.0827.0126-1.624.0022-.2333.0032-.4667.0028-.7-.0017-1.5397.0336-2.6298 1.1605-3.7802 2.0337-1.4197 4.3785-2.0354 6.8026-2.4333l.0006-.2866c.0046-2.3047.012-4.6094.0224-6.9141.0049-1.1146.009-2.2291.0108-3.3437.0016-.9718.005-1.9436.0104-2.9154.0029-.5142.0048-1.0285.0047-1.5427a176.236 176.236 0 0 1 .0061-1.4543c.0011-.1772.0013-.3544.0006-.5316-.0043-1.2447.1466-2.1882.8326-3.2375.8384-.8019 1.6918-1.2278 2.8489-1.2395Zm-9.2454 25.5246c-.242.3254-.2859.5341-.3506.9271 2.0579 2.1602 6.0523 2.629 8.903 2.7559.305.0069.6098.0103.9148.0119l.3392.0027c.3593.0022.7186.003 1.0778.0032l.3722.0002c1.8484-.002 3.6515-.0486 5.4712-.4054l.3444-.0668c2.8866-.5657 2.8866-.5657 5.2653-2.177.1524-.2242.1524-.2242.1246-.4986-.4042-.6092-.8604-.9395-1.5193-1.2544a278.3211 278.3211 0 0 0-.2625-.1277c-.9901-.4622-2.0163-.748-3.0799-.9865a204.923 204.923 0 0 1-.2573-.0578c-4.6821-1.0122-13.4584-1.6472-17.3429 1.8732Zm23.2099-1.6907.1504.1962.2002.2635.2103.2741c.187.2635.187.2635.3506.6374.1851.2695.1851.2695.4602.3088.545.0341.806-.0132 1.2617-.3321.2623-.3258.2623-.3258.2415-.6779-.1675-.3744-.2685-.4732-.6311-.67-.3854-.0456-.7656-.0352-1.1531-.0234l-.3175.0051a71.2316 71.2316 0 0 0-.7732.0183Zm-23.5605 5.2357c-.0255.4206-.0409.841-.0546 1.2621l-.0221.3594c-.0234.6578-.0234.6578.2513 1.2345.2226.1961.445.3551.698.5097l.3379.2148c1.9761.9938 4.0958 1.3551 6.269 1.6551l.2793.0401c1.1483.1404 2.3133.115 3.4683.1157l.3536.0003c3.4544-.0039 8.4489-.0394 11.1072-2.6492.1496-.2993.1389-.4854.1368-.8191l-.0012-.3384-.0032-.354-.0017-.357a231.4947 231.4947 0 0 0-.0061-.874c-.3931.1264-.7777.2612-1.1609.4153-1.4092.5658-2.832.9282-4.3241 1.2052l-.3366.063c-3.6851.6479-7.8277.6001-11.5059-.063l-.3253-.0566c-1.7129-.3056-3.3654-.746-4.9104-1.5639h-.2493Zm-2.4776 3.841-.3341.1972c-.3798.2452-.3798.2452-.6788.5741-.0563.364-.0553.5437.1568.8488 2.7871 2.4313 7.5739 2.5441 11.0781 2.5482l.3134.0007c2.0284.0012 4.0367-.12 6.0286-.5305v-.1247l-.4406-.0055c-11.7784-.1586-11.7784-.1586-14.703-3.0418a17.1358 17.1358 0 0 1-.5103-.6024l-.1777-.2147c-.2602 0-.5178.2228-.7324.3506Zm26.1627.6467c-.2668.1972-.2668.1972-.5298.3506l-.2668.1582-.2006.1145c.2111.2604.3234.3646.6583.4263.3572.0066.714.0109 1.0713.01l.3754.0107c.6054.0016.9119.0008 1.4093-.3681.2547-.3069.2547-.3069.2332-.6555-.1622-.3625-.2899-.4684-.6311-.67-.3906-.0685-.3906-.0685-.8103-.0623l-.4246-.0117c-.5025.0964-.5962.2876-.8843.6973Zm-9.5987 2.7425v.1246h.6233v-.1246h-.6233Zm-17.7015.4986c-.0101.3818-.0175.7634-.0234 1.1453l-.0095.3265c-.007.6129.0068 1.0224.4069 1.52 2.8233 2.7378 8.598 2.5735 12.2224 2.5243 3.0154-.0552 7.6641-.2572 9.9668-2.5243.328-.3736.42-.5965.4105-1.0927l-.0037-.336-.0094-.3477-.0052-.3535a75.0403 75.0403 0 0 0-.0182-.8619l-.3847.169c-6.2129 2.6779-14.6654 2.8905-21.0099.4932a31.926 31.926 0 0 1-.67-.2882 202.1157 202.1157 0 0 0-.4782-.205l-.3944-.169Zm26.1783 3.8644c.1821.5464.5262.7462.9929 1.0645.7404.3564 1.5672.3146 2.3432.0764.3166-.1344.3166-.1344.5283-.5176-.0254-.3389-.072-.5524-.2756-.8266-.307-.2349-.5169-.219-.9008-.2203l-.4003-.0015-.4178.0044-.4178-.0044-.4003.0015-.3667.0013c-.3561.0553-.4659.1436-.6851.4223Zm-3.9891 1.6362c-3.1858 1.6798-7.1242 1.8826-10.6583 1.8776l-.2998-.0002c-2.5531-.0053-4.9825-.2978-7.4914-.7711-.1364.4877-.1364.4877.0609.9427.3674.3566.7525.5826 1.2091.8025l.2671.1297c2.9731 1.3947 6.3962 1.6441 9.6355 1.6467l.2869.0003c3.5782-.005 8.1068-.1848 10.9869-2.5947.2727-.2712.2727-.2712.2191-.5459-.3254-.8167-1.2352-1.2281-1.9955-1.5578-.9263-.3911-1.3434-.4264-2.2205.0702Zm-18.5741 4.3474c-.0182.4233-.0292.8465-.039 1.27l-.0158.3625c-.0169.7358-.0169.7358.3431 1.3623l.335.2464.2089.1709c4.4534 2.9016 11.8008 2.552 16.7992 1.5353 2.8107-.5655 2.8107-.5655 5.0588-2.2199.2493-.4776.1856-1.0029.1613-1.5276a2343.013 2343.013 0 0 0-.0085-.3501 43.7957 43.7957 0 0 0-.0305-.8498l-.3847.169c-3.494 1.5061-7.1798 1.9784-10.967 1.9814l-.2954.0003c-3.7665-.0052-7.7719-.3806-11.1654-2.1507Zm24.8071.8726v1.6206c.7917.0888.7917.0888 1.4491-.2727.1938-.3346.1938-.3346.1792-.6778-.1815-.4058-.3465-.501-.7557-.6701-.4624-.0312-.4624-.0312-.8726 0Zm-28.1408 5.6335c-.2115.3042-.2102.4858-.1568.8488 2.0795 2.2729 6.4716 2.5962 9.3494 2.7425.6441.0188 1.2879.0245 1.9323.0234l.2642-.0004c3.5026-.0101 8.2131-.145 10.9818-2.5795.1939-.1876.1939-.1876.1836-.521a384.6526 384.6526 0 0 0-.0234-.2883c-.3158-.1579-.4349-.1076-.7771-.0365l-.3294.0656-.3582.0722c-5.2039.9827-12.9079 1.3825-17.572-1.5612-1.0703-.6027-2.695.5371-3.4944 1.2344Z" fill="#315BAF"/><path d="m34.3179 19.6509.3572-.0022.3911.0014.4165-.0014c.4621-.0013.9242-.0008 1.3864-.0003.3306-.0005.6613-.0012.992-.0019.8059-.0016 1.6118-.0018 2.4177-.0015.6549.0002 1.3099 0 1.9648-.0006l.2823-.0002.5678-.0005c1.7754-.0013 3.5508-.001 5.3262-.0003 1.6247.0007 3.2493-.0007 4.874-.0031 1.6677-.0024 3.3355-.0035 5.0032-.003.9365.0003 1.873-.0001 2.8095-.0018a635.5284 635.5284 0 0 1 2.3916-.0002c.4068.0008.8136.0007 1.2204-.0006.4409-.0013.8817-.0003 1.3225.0013l.3904-.0028c1.0935.0083 1.0935.0083 1.5823.4234.1904.3807.1452.7788.1467 1.1966l.0025.2962c.0025.324.0039.6481.0052.9721l.0015.335c.0026.585.0044 1.1699.0056 1.7549.0013.6048.0056 1.2095.0106 1.8143.0032.4645.0043.9291.0047 1.3936.0006.223.0021.4459.0044.6689.003.3119.0029.6236.0021.9355l.0048.2795c-.0039.3788-.0312.648-.2323.973-.526.3601-1.0545.2948-1.6775.2899l-.4211.0026c-.4673.0023-.9346.001-1.4019-.0003-.3343.0009-.6687.002-1.003.0033-.8149.0027-1.6298.0027-2.4447.0016a877.1887 877.1887 0 0 0-1.9868.0002l-.2855.0003-.5741.0007c-1.7952.0021-3.5904.001-5.3856-.0011-1.6428-.0018-3.2856 0-4.9284.0036-1.6863.0037-3.3726.005-5.0589.0038l-.5721-.0003-.2844-.0002a596.6451 596.6451 0 0 0-1.9844.0028 397.836 397.836 0 0 1-2.4183-.0007 153.8393 153.8393 0 0 0-1.2341.0005c-.4458.002-.8914.0002-1.3372-.0027l-.3947.0045c-.5888-.0076-.8762-.0145-1.361-.3715-.3-.4342-.3165-.7914-.3059-1.3014l-.0015-.289a64.28 64.28 0 0 1 .0066-.9418c.0005-.2187.0008-.4374.0009-.6561.0007-.4578.0036-.9156.008-1.3734.0057-.5868.0075-1.1734.008-1.7602.0005-.4514.0024-.9028.0048-1.3542.0011-.2163.0019-.4327.0025-.649.0011-.3023.0039-.6045.0072-.9068l.0003-.2706c.0067-.4495.0129-.8114.2872-1.1787.3723-.2269.651-.2806 1.0839-.2811Zm.6614 2.0263v7.2302h31.1646v-7.2302H34.9793Z" fill="#315BAF"/><path d="m43.8104 13.0275.3456-.002c.3839-.0018.7677-.0009 1.1515 0a558.3087 558.3087 0 0 1 3.0653-.004c.6236.0004 1.2472-.0004 1.8708-.0011a2135.565 2135.565 0 0 1 4.6672.0001c1.3499.0012 2.6997-.0004 4.0496-.0034 1.3866-.003 2.7731-.0042 4.1597-.0034.7782.0004 1.5564.0001 2.3346-.002a383.1507 383.1507 0 0 1 2.1972.0009c.2685.0005.537.0001.8055-.0012a103.74 103.74 0 0 1 1.1017.002l.32-.0037c1.1067.0136 1.9805.4491 2.7817 1.1993.9849 1.0921 1 2.6004.9952 3.9945l.0014.4475c.0011.4065.001.8129.0005 1.2194-.0003.4397.0008.8794.0017 1.319.0016.8599.0019 1.7197.0016 2.5795-.0003.6988 0 1.3976.0005 2.0964l.0002.3018.0005.6071c.0013 1.8952.0011 3.7904.0003 5.6856-.0006 1.7337.0008 3.4675.0031 5.2013.0024 1.7814.0035 3.5628.003 5.3443-.0002.9996.0001 1.9993.0018 2.999.0015.8505.0017 1.701.0002 2.5515-.0007.4338-.0009.8676.0006 1.3015.0013.4702.0003.9404-.0013 1.4107l.0028.4156c-.0049.6832-.0232 1.198-.4234 1.7816-.3854.1927-.6974.1612-1.1219.1246-.3166-.2458-.477-.3963-.561-.7928l.0001-.3329-.0036-.3853.0037-.4228-.0021-.4496c-.0013-.412-.0005-.8239.0013-1.2359.0014-.4442-.0001-.8885-.0013-1.3328-.0016-.77-.0015-1.5399-.0001-2.3099a955.299 955.299 0 0 0-.0015-3.3432 2888.764 2888.764 0 0 1-.0045-5.4282v-.3282l.0001-1.3165c.0002-1.2071 0-2.4141-.0003-3.6211l-.0001-.3274c-.0006-1.802-.0026-3.6039-.0056-5.4059a1157.9405 1157.9405 0 0 1-.0006-3.3341c.0009-.7618.0005-1.5236-.0009-2.2854-.0008-.4395-.0009-.8789.0006-1.3183.0016-.4767.0004-.9534-.0012-1.4302l.0029-.4193c-.0053-.7796-.0799-1.3716-.4232-2.0764-.7668-.6501-1.5026-.6417-2.4698-.6388a6159.227 6159.227 0 0 0-.3353-.0006c-.3707-.0004-.7414 0-1.1122.0004l-.7974-.0007c-.5723-.0006-1.1446-.0008-1.7169-.0008-.9045-.0002-1.8091-.0018-2.7136-.0037l-.4624-.001-.9361-.002a2892.2772 2892.2772 0 0 0-6.3177-.0073 1261.202 1261.202 0 0 1-4.2616-.0064 446.3726 446.3726 0 0 0-2.2558-.0019c-.7067.0014-1.4134 0-2.1201-.0037a91.9698 91.9698 0 0 0-.7791.0008 79.8952 79.8952 0 0 1-1.0614-.0034l-.3133.0043c-.4884-.0083-.7196-.0378-1.087-.3715-.2472-.4572-.1936-.7139-.0565-1.2076.3955-.5063.8794-.4264 1.4763-.4223ZM55.0492 34.8445l.4295-.0044c1.1538.004 2.0079.1738 2.8774.972.4924.5394.659 1.1461.7133 1.8528-.062.9306-.4117 1.5336-1.0026 2.2424-.8762.6994-1.8695.6546-2.9397.6481l-.4412.0076c-.9949-.0006-1.9761-.0844-2.7456-.7789-.7029-.7598-.8128-1.4803-.7945-2.4956.0741-.7657.3502-1.2083.8804-1.7506.9891-.6657 1.8588-.7053 3.023-.6934Zm-1.7024 2.2701c-.2289.3688-.2399.5922-.1675 1.0178.5466.5265 1.1451.4381 1.8621.4363l.3737.0107c.6036.0016.9069 0 1.4027-.3682.2553-.3067.2553-.3067.2337-.6554-.1599-.3576-.299-.4665-.631-.67-.4544-.0762-.9112-.0578-1.3713-.0546l-.3769-.0075c-.7064-.0088-.7064-.0088-1.3255.2909ZM55.0492 43.9446l.4295-.0044c1.1538.004 2.0079.1737 2.8774.9719.4924.5395.659 1.1462.7133 1.8529-.064.9608-.4346 1.695-1.153 2.3373-.8817.5673-1.7764.5745-2.7971.561l-.4394.0058c-.9906-.0044-1.9739-.094-2.7396-.7849-.7028-.76-.8128-1.4803-.7945-2.4956.0741-.7657.3502-1.2083.8804-1.7506.9891-.6657 1.8588-.7053 3.023-.6934Zm-1.7024 2.2701c-.2289.3688-.2399.5922-.1675 1.0177.5466.5266 1.1451.4382 1.8621.4363l.3737.0108c.6036.0016.9069 0 1.4027-.3682.2553-.3067.2553-.3067.2337-.6554-.1599-.3576-.299-.4666-.631-.67-.4544-.0762-.9112-.0579-1.3713-.0546l-.3769-.0075c-.7064-.0088-.7064-.0088-1.3255.2909Z" fill="#315BAF"/><path d="m64.0246 34.8445.4295-.0044c1.1538.004 2.0079.1738 2.8774.972.4925.5394.659 1.1461.7134 1.8528-.0641.9608-.4347 1.695-1.1531 2.3373-.8817.5673-1.7764.5745-2.797.561l-.4395.0058c-.9906-.0044-1.9739-.094-2.7396-.7849-.7028-.7599-.8128-1.4802-.7944-2.4956.074-.7657.3501-1.2083.8804-1.7506.989-.6657 1.8588-.7053 3.0229-.6934Zm-1.8698 2.4152c-.0832.4364-.0832.4364 0 .8727.5392.5306 1.1495.4381 1.862.4363l.3738.0107c.6036.0016.9068 0 1.4026-.3682.2553-.3067.2553-.3067.2338-.6554-.16-.3576-.2989-.4668-.6311-.67-.3042-.057-.3042-.057-.6311-.0497l-.3633-.0015-.3769.0044-.3769-.0044-.3632.0015-.3307.0013c-.3653.0588-.5368.1633-.799.4223ZM64.0246 43.9446l.4295-.0044c1.1538.004 2.0079.1737 2.8774.9719.4925.5395.659 1.1462.7134 1.8529-.0641.9608-.4347 1.695-1.1531 2.3373-.8817.5673-1.7764.5745-2.797.561l-.4395.0058c-.9906-.0044-1.9739-.094-2.7396-.7849-.7028-.76-.8128-1.4803-.7944-2.4956.074-.7657.3501-1.2083.8804-1.7506.989-.6657 1.8588-.7053 3.0229-.6934Zm-1.8698 2.4152c-.0832.4363-.0832.4363 0 .8726.5392.5306 1.1495.4382 1.862.4363l.3738.0108c.6036.0016.9068 0 1.4026-.3682.2553-.3067.2553-.3067.2338-.6554-.16-.3576-.2989-.4668-.6311-.67-.3042-.057-.3042-.057-.6311-.0497l-.3633-.0015-.3769.0044-.3769-.0044-.3632.0015-.3307.0013c-.3653.0588-.5368.1633-.799.4223ZM54.7561 51.2931a38.773 38.773 0 0 0 .7549-.0139c1.021-.0056 1.8128.0818 2.6551.6903.281.2887.281.2887.4441.5687l.1719.281c.3247.6696.3593 1.3672.1758 2.0836-.3029.8595-.7357 1.4088-1.56 1.8104-.6627.221-1.3714.1594-2.0639.1573a63.1056 63.1056 0 0 0-.8256.0057c-.1765.0003-.353.0004-.5295.0002l-.4826.0012c-.7983-.084-1.2966-.4465-1.8124-1.0437-.5499-.6985-.5818-1.3158-.5547-2.1962.1043-.7848.4776-1.2597 1.0533-1.7773.8289-.5871 1.5826-.5645 2.5736-.5673Zm-1.4288 2.2143c-.2296.3226-.1955.5714-.1475.9552.231.3191.3662.3714.7479.4987.3683.0279.7371.0231 1.1064.0233l.3034.0047c.535.0013.9806-.0045 1.4574-.2773.2838-.3427.2838-.3427.2259-.6857-.1125-.3462-.1886-.4664-.4752-.6856-.3191-.0576-.3191-.0576-.6779-.0497l-.4002-.0014-.4178.0044-.4178-.0044-.4003.0014-.3667.0013c-.3152.0245-.3152.0245-.5376.2151ZM54.733 58.6643a46.202 46.202 0 0 0 .5523-.0077c1.9039-.0382 1.9039-.0382 2.7563.5431.6418.6275 1.0035 1.3446 1.044 2.2439-.0346.801-.3358 1.5656-.9193 2.1192-1.0002.6864-1.9482.7149-3.1321.6934l-.4981.0041c-1.0514-.0079-1.7941-.0805-2.6057-.7949l-.1685-.2143-.1743-.2143c-.3706-.5382-.439-.9161-.4412-1.5777a494.337 494.337 0 0 0-.0063-.4509c.0962-.9283.6123-1.4542 1.3075-2.0267.664-.4427 1.5175-.3131 2.2854-.3172Zm-1.4284 2.156c-.1744.3488-.1562.6114-.1247.9972.1399.2205.1399.2205.374.374.4921.0833.9898.0635 1.4881.0623l.4147.0107c.7839.0196.7839.0196 1.4318-.3681.1778-.3169.1778-.3169.1636-.6554-.1834-.41-.3456-.4843-.7557-.6701-.3959-.0507-.7857-.0465-1.1843-.0389l-.3179-.0012c-.5432.0047-1.004.0168-1.4896.2895ZM63.7314 51.2931c.2518-.0015.5032-.0076.755-.0139 1.0216-.0056 1.8115.0828 2.655.6903.281.2843.281.2843.4441.5609l.1719.2766c.3664.7894.3468 1.6005.0619 2.4114-.3073.7157-.7487 1.1551-1.4461 1.4948-.6627.221-1.3714.1594-2.0639.1573a63.1177 63.1177 0 0 0-.8256.0057c-.1765.0003-.353.0004-.5295.0002l-.4826.0012c-.931-.098-1.456-.6109-2.0306-1.3086-.4527-.6792-.3564-1.574-.2804-2.3529.2831-.7886.9073-1.3937 1.654-1.7589.622-.2028 1.2678-.1623 1.9168-.1641Zm-1.4288 2.2143c-.2296.3226-.1955.5714-.1475.9552.231.3191.3662.3714.7479.4987.3683.0279.7371.0231 1.1064.0233l.3034.0047c.535.0013.9806-.0045 1.4574-.2773.2838-.3427.2838-.3427.2259-.6857-.1125-.3462-.1886-.4664-.4752-.6856-.3191-.0576-.3191-.0576-.6779-.0497l-.4002-.0014-.4178.0044-.4178-.0044-.4003.0014-.3667.0013c-.3152.0245-.3152.0245-.5376.2151ZM63.7083 58.6643c.1842-.0015.3683-.004.5524-.0077 1.9038-.0382 1.9038-.0382 2.7562.5431.6425.6282.9477 1.2906 1.0441 2.1737-.096.9119-.314 1.5951-1.0441 2.1894-.9111.656-1.5946.6537-2.6931.66-.172.0015-.3441.004-.5161.0077-1.1536.0248-2.0052.0243-2.902-.7651a244.5006 244.5006 0 0 1-.1684-.2143l-.1744-.2143c-.5336-.7749-.4826-1.5465-.4022-2.4659.1886-.7592.6332-1.1638 1.2588-1.6044.689-.409 1.5131-.298 2.2888-.3022Zm-1.4284 2.156c-.1744.3488-.1561.6114-.1247.9972.1399.2205.1399.2205.374.374.4921.0833.9898.0635 1.4881.0623l.4147.0107c.7839.0196.7839.0196 1.4318-.3681.1778-.3169.1778-.3169.1637-.6554-.1835-.41-.3457-.4843-.7558-.6701-.3959-.0507-.7857-.0465-1.1842-.0389l-.318-.0012c-.5432.0047-1.004.0168-1.4896.2895ZM21.9488 31.4594l.2709-.0015c.1886-.0003.3772.0006.5658.0027.2882.0026.576 0 .8642-.0032.1836.0003.3671.001.5507.002l.2602-.0031c.4148.0081.6382.0449.9745.2955.2854.3987.2633.6671.195 1.145-.2328.2948-.4139.4563-.748.6233-.5093.0292-1.0189.0285-1.5291.03-.2528.0012-.5055.005-.7583.009l-.4847.0019-.4443.0036c-.4385-.0489-.6713-.1555-1.0219-.4185-.1928-.3854-.1613-.6973-.1247-1.1219.3897-.5504.7974-.5723 1.4297-.5648ZM23.0589 28.5026l.4607-.0078.446-.0019.4058-.0036c.449.0517.7483.1863 1.1339.4184.1928.3854.1613.6974.1247 1.122-.1936.2734-.1936.2734-.4986.4986-.3282.0497-.6034.0701-.9311.0662l-.2709.0015a44.4644 44.4644 0 0 1-.5658-.0027c-.2882-.0027-.576 0-.8642.0032a168.487 168.487 0 0 1-.5507-.002l-.2602.0031c-.4149-.0081-.6384-.0452-.975-.2955-.2826-.3958-.2538-.6705-.1945-1.145.1623-.3085.2569-.4588.5895-.5721.6403-.1159 1.3017-.0797 1.9504-.0824ZM24.8938 25.3655c.2376.0516.2376.0516.5493.2464.2598.4221.2565.6895.187 1.1764-.2379.3349-.4146.4655-.7947.6155-.4433.0106-.7015-.1368-1.0752-.3661-.1779-.3557-.1634-.6027-.1247-.9973.3127-.5992.614-.7206 1.2583-.6749Z" fill="#315BAF"/></svg>