<svg width="90" height="90" fill="none" xmlns="http://www.w3.org/2000/svg"><path fill="#fff" d="M0 0h90v90H0z"/><path d="M62.0933 13.4945c-.72.6319-.96 1.1127-.96 1.9369v.6594L60 16.5853l-1.12.4945-.3733-.3983c-.6134-.6731-1.04-.838-2.0134-.7693l-.8533.0549-.92.9754c-.7333.7829-.92 1.0577-.92 1.4011v.4258l-20.1467.0275-20.1466.0412-.2534.3297C13 19.4838 13 20.0057 13 39.4433V59.389l.28.3709.2667.3572h23.32v.783c0 1.0577.2 1.4286.9333 1.7033l.6.2336.04 1.9643.0267 1.9781-5.5467 1.3737c-3.4533.8517-5.68 1.4698-5.8667 1.6209-.3066.2473-.32.316-.32 2.3078 0 1.8682.0267 2.0743.2667 2.3215.1467.1511.4267.2748.6267.2748.1866 0 3.5466-.5632 7.4533-1.2364l7.0933-1.2363 7.12 1.2363c3.9067.6732 7.2667 1.2364 7.4534 1.2364.1866 0 .4666-.1374.6266-.316.2667-.3022.2934-.4533.2934-2.2528 0-1.6347-.04-1.9781-.2267-2.2254-.2533-.3022-.5333-.3709-8.2667-2.294l-3.24-.8105v-4.0111l.5067-.1511c.76-.2335.9333-.522.9867-1.5385.0533-1.1402.2266-1.1814 1.3333-.3709 1.12.8104 2.5333 1.5385 3.7333 1.8956 1.2267.3572 4 .5083 5.1734.2748.44-.0962.9066-.1374 1.04-.0962.12.0412.6933.9066 1.2666 1.9232C60.8667 66.3261 61 66.6421 61 67.2327c0 .3709.0667.8792.16 1.1402.08.261.9867 1.9643 2 3.7913 1.4267 2.5413 2.0133 3.4617 2.4667 3.8875 1.44 1.2913 3.5866 1.2638 4.9733-.0824 1.0667-1.0165 1.4933-2.349 1.2-3.6952-.0933-.4258-.84-1.9094-2.0267-4.0523-1.8666-3.3243-2.48-4.176-3.28-4.5332-.2533-.1098-.6133-.6181-1.2533-1.7857-.5067-.8929-.9067-1.6622-.9067-1.7034 0-.0412 1.44-.0824 3.1867-.0824 2.9333 0 3.2133-.0137 3.4933-.261l.32-.261.04-11.3466L71.4 36.902h.4133c.3067 0 .5867-.1786 1.2134-.7968.96-.9478 1.1733-1.3324 1.1733-2.1566 0-.783-.2533-1.4012-.7733-1.8957l-.4-.3984.3866-.9066c.2-.5083.4-1.0303.44-1.1676.0534-.1786.2267-.2336.8267-.2336.7467 0 .7733-.0137 1.5467-.7967L77 27.7395v-2.6924l-.7067-.7417c-.7066-.7144-.7333-.7281-1.52-.7281h-.8l-.3066-.8654c-.16-.4671-.3867-1.0028-.4934-1.1814-.1866-.3022-.1733-.3434.3867-.9341.5733-.6044.5733-.6044.5733-1.6209v-1.0303l-.9733-.989-.96-1.0028h-1c-.9867 0-.9867 0-1.5733.5907l-.5867.6044-.6533-.3434c-.36-.1786-.88-.4121-1.1467-.4945l-.5067-.1786v-.8242c0-.8242-.0133-.8517-.7066-1.5798l-.72-.728h-2.6534l-.56.4945Zm2.6134 1.7309c.0933.0961.16.5632.16 1.1401 0 1.1676.2 1.4286 1.2666 1.6896.3734.0962 1.1467.4121 1.7334.7143.5866.3022 1.2133.5495 1.4.5495.24 0 .56-.2198 1-.6868.36-.3847.7733-.6869.92-.6869.36 0 1.0133.6731 1.0133 1.0303 0 .1648-.28.5769-.6667.9616-.8133.8242-.84 1.1126-.2133 2.294.2533.4808.5867 1.2913.7333 1.827.4 1.3462.52 1.4424 1.68 1.4424s1.2934.1236 1.24 1.0577l-.04.6593-1.12.0687c-1.2533.0962-1.5066.261-1.68 1.1951-.1066.6457-.68 2.0468-1.0133 2.5413-.44.6319-.3333 1.1402.4133 1.9507.3734.3983.6667.8104.6667.9066 0 .2198-.7867 1.0989-.9733 1.0989-.08 0-.4534-.3022-.8267-.6868-.96-.9341-1.1467-.9479-2.3467-.2885-.5466.2885-1.4266.6731-1.9466.838-.6134.1785-1.0134.3846-1.1067.5494-.0667.1374-.1333.6869-.1333 1.1951 0 .5495-.0667 1.0165-.16 1.1127-.0934.0962-.4.1648-.7067.1648s-.6133-.0686-.7067-.1648c-.0933-.0962-.16-.5495-.16-1.0852 0-.7143-.0533-.9891-.28-1.2775-.1466-.1923-.36-.3572-.4666-.3572-.36 0-2.0667-.6731-2.7734-1.0989-.4-.2198-.8133-.4121-.9333-.4121-.1333 0-.5733.3434-1 .7555-.4267.4121-.8533.7555-.9467.7555-.2533 0-1.0666-.8242-1.0666-1.0852 0-.1099.3333-.5495.7333-.989.4-.4396.7333-.8929.7333-1.0028 0-.1236-.2133-.6182-.4666-1.1264-.2534-.4946-.5867-1.3462-.7467-1.882-.3867-1.3599-.6667-1.6072-1.84-1.6072-.52 0-.96-.0687-1.0533-.1648-.2134-.2198-.2134-1.2363 0-1.4561.0933-.0962.5466-.1648 1.08-.1648.4933 0 1.0266-.0687 1.16-.1374.16-.0962.36-.5083.5333-1.1402.16-.5357.5333-1.4423.8267-2.0055.64-1.2089.6133-1.4149-.2934-2.4177-.3733-.3846-.6666-.7693-.6666-.8242 0-.2061.84-1.0303 1.04-1.0303.12 0 .52.3022.9066.6869.7867.7692 1.28.8791 1.8934.4395.4-.2884 1.7866-.8791 2.6933-1.1538.7467-.2198.9333-.577.9333-1.7721 0-.4945.04-.9478.0934-.989.1466-.1649 1.3066-.1099 1.48.0687Zm-9.9734 5.8106c.1334.1648.12.3022-.08.7143-.12.2885-.3333.7967-.4666 1.1402l-.2267.6181-.7733.0412c-.7467.0412-.8267.0825-1.48.7556L51 25.0059v2.926l.72.7143c.7067.6868.7467.7005 1.52.7005.76 0 .8.0138.8933.3709.04.2198.24.7418.4267 1.1814l.3467.7967-.5467.577c-.56.5769-.56.5907-.56 1.6072v1.0302l.96.9891.96 1.0028h1c1 0 1.0133 0 1.5733-.577l.56-.5632.7734.3572c.4266.1923.9333.3983 1.1466.4395.3467.0962.36.1374.36.9204 0 .8105.0134.838.72 1.5935l.7334.783h2.6666l.7334-.7418c.7066-.7143.7333-.783.7733-1.5523l.04-.8104 1.12-.4671c.8533-.3571 1.1733-.4396 1.3067-.3297.1333.1237.1733 1.6484.1733 8.1047v7.9536h-1.96l-.08-1.6209c-.12-2.5963-.8933-4.7804-2.4-6.8272-1.4667-1.9781-3.9867-3.6815-6.4267-4.3408-1.5333-.4121-3.9733-.4259-5.5733-.0138-5.16 1.3188-8.6933 5.7557-8.9867 11.2504l-.08 1.5523H15V20.83h19.7867c17.3866 0 19.8.0274 19.9466.206Zm3.28 20.1244c1.6267.4121 3.1067 1.25 4.3334 2.4451 3.8266 3.7089 4.1866 9.5745.8533 13.8329-.8933 1.1402-1 1.3737-1 2.3078 0 .6319.1067.9066.8 2.1429.76 1.36.8533 1.6622.48 1.6622-.08 0-.4533.1923-.8.4258-.36.2198-.6533.3984-.68.3709-.0133-.0275-.36-.6319-.7733-1.3599-.7867-1.3874-1.3334-1.9919-1.9334-2.1292-.2-.0412-.4266-.0962-.52-.1237-.0933-.0274-.6933.0413-1.3333.1511-4.7467.8792-9.5067-2.0055-11.04-6.6898-.5067-1.5385-.6267-3.9836-.2667-5.5084.9067-3.8463 3.76-6.7585 7.4667-7.5964 1.2267-.2885 3.1733-.2473 4.4133.0687Zm-13.56 13.3521c.2134.7143.9334 2.3078 1.4134 3.0908l.3466.5906H15v-4.2584H44.2933l.16.577ZM69.4 56.0647v2.1292h-2.0667c-1.4133 0-2.0666-.0412-2.0666-.1511 0-.0824.12-.3296.28-.5494.3733-.5358 1.2666-2.5688 1.3866-3.1183l.0934-.4396H69.4v2.1292Zm-23.8667 4.3958c0 .2747-.0933.3572-.4933.4671-1.6933.467-3.88.522-5.4667.1373-.6533-.1511-.7066-.206-.7066-.5632v-.3846h6.6666v.3434Zm-1.6 4.3134v1.4835l-.92-.206c-.8133-.1786-1.0133-.1786-1.7333 0l-.8133.2198V63.304H42.2l1.7333-.0137v1.4836Zm21.8667.8654c.48.3434.48.3297 2.68 4.2858 1.2 2.143 1.4533 2.7062 1.4533 3.1595 0 1.0989-.7866 1.8682-1.8933 1.8682-1.0133 0-1.2267-.2473-3.1333-3.654C63.9333 69.5542 63.08 67.947 63 67.7135c-.2667-.783.2933-1.9918 1.0667-2.2803.4933-.1786 1.3066-.0824 1.7333.2061Zm-16.7867 3.9562c3.6134.9066 6.5867 1.6484 6.6134 1.6484.0266 0 .04.2747.04.6181 0 .3984-.0534.6182-.16.6182-.0934 0-3.12-.522-6.7334-1.1402l-6.5466-1.1401-6.52 1.1264c-3.5734.6319-6.64 1.1401-6.8 1.1401-.2667.0138-.3067-.0549-.3067-.5769v-.5907l3.1067-.783c1.6933-.4258 4.6533-1.1813 6.56-1.6621 1.9066-.4808 3.6266-.8792 3.8133-.8929.2-.0138 3.32.728 6.9333 1.6347Z" fill="#315BAF"/><path d="M62.9871 19.7311c-5.32.8379-7.4533 7.5415-3.64 11.4839 2 2.0743 5.0667 2.5688 7.64 1.2363.8267-.4396 2.0133-1.5522 2.52-2.3902 1.2-1.9369 1.32-4.6842.2933-6.7585-1.2266-2.4726-4.1066-3.9836-6.8133-3.5715Zm2.8533 2.3078c.3467.1648.92.5769 1.2667.9066 2.7067 2.61 1.52 7.1843-2.0933 8.1321-3.2667.8517-6.3867-2.3627-5.56-5.7419.4-1.6072 1.6266-2.9809 3.1333-3.4754.84-.2748 2.4267-.1923 3.2533.1786Z" fill="#315BAF"/><path d="m64.4663 25.1844-1.08 1.2088-.4667-.5906c-.3867-.4671-.56-.577-.9333-.577-.28 0-.56.1099-.72.2748-.4667.4807-.3467.9478.5733 2.0879.8533 1.0853 1.3467 1.4287 1.8133 1.2776.3067-.0962 3.0934-3.2282 3.24-3.6403.1334-.3571-.08-.9066-.4133-1.0852-.6-.3434-.8933-.1923-2.0133 1.044ZM30.4534 23.1515c-.5867.1923-.9734.4396-1.5467 1.0165-.3333.316-.9333.7144-1.4.9067-.8267.3434-.9333.3434-5.28.4258-4.2.0687-4.4533.0824-4.64.3297-.28.3984-.2267.9616.12 1.2912.3067.3023.4.3023 4.04.3023h3.72l.2267.5494c.1866.4671.1866.5632.0133.7006-.3333.3022-.7067 1.1951-.7067 1.7308 0 .3022.1067.7556.2534 1.0303.1333.2885.2133.5495.1733.5907-.04.0412-1.7333.0687-3.76.0687-3.68 0-3.6933 0-3.9733.3159-.3334.3709-.3734.8929-.1067 1.2775.1733.2473.4133.261 3.1867.3297l2.9866.0687-.7066 1.2088c-.3867.6731-.9067 1.7034-1.1467 2.3078l-.4267 1.0852h-1.6933c-1.5067 0-1.72.0275-2.04.2885-.4133.3434-.4533.9066-.0933 1.3736.24.3023.36.3297 1.8.3709l1.5466.055v.9753c0 1.0577.28 2.4726.6 3.1182l.2.3984-1.9466.0412c-1.8534.0412-1.96.055-2.2.3709-.36.4671-.32 1.0303.0933 1.3737.3333.2747.5333.2885 2.9867.2885H23.36l.8667.5906c.9867.6869 2.5067 1.2226 4.3733 1.5523 1.76.3022 5.2.206 6.8-.2061 3.24-.8379 5.3467-2.7885 5.9867-5.5496.08-.3572.16-1.1676.16-1.8133l.0267-1.1539 2.92-.0412c2.8933-.0412 2.9333-.0412 3.1866-.3709.36-.467.32-1.0302-.0933-1.3736-.3333-.2748-.52-.2885-3.3867-.2885h-3.0266l-.3067-.8654c-.3733-1.0578-.9867-2.3215-1.48-3.0771-.2133-.3159-.3867-.6044-.3867-.6456 0-.0412 2.8267-.0824 6.2667-.0824 6.0933 0 6.28-.0137 6.5333-.2747.1467-.1511.2667-.4534.2667-.6869 0-.2335-.12-.5357-.2667-.6868-.2666-.2747-.44-.2747-7.3866-.2747-4.48 0-7.16-.055-7.2134-.1374-.04-.0687.0267-.2885.1467-.4808.4267-.6731.2133-2.088-.4267-2.7336-.1866-.2061-.1866-.2748-.0133-.7418l.2-.5083 5.9733-.0412c5.92-.0274 5.9734-.0274 6.28-.3297.3867-.3708.4-.9753.04-1.3462-.2533-.261-.44-.2747-6.7866-.2747h-6.52l-.72-.3434c-.3867-.1923-.7734-.3434-.8667-.3434-.0933 0-.4533-.3022-.8133-.6731-.9067-.9341-2.1734-1.3188-3.24-.9891Zm2.0666 2.6787c.5867.6456.7867.7692 1.4534.9204.4266.0961.8666.2472 1 .3434.2133.1511.2.1923-.0934.522l-.3333.3571-3.3333-.0275-3.3334-.0412-.2-.3709c-.12-.206-.1733-.3983-.1466-.4395.04-.0275.52-.1923 1.0666-.3434.68-.1786 1.0667-.3709 1.2-.577.5467-.8242.9067-1.0852 1.48-1.0852.52 0 .6267.0687 1.24.7418Zm3.0934 4.4095c.0533.1099.0133.3022-.08.4121-.2534.3159-8.3734.3022-8.48 0-.0534-.1099-.0534-.3022 0-.4121.1066-.316 8.4533-.316 8.56 0ZM36 33.4953c1.4267 1.5248 2.68 3.7089 3.2934 5.742.24.8104.3066 1.3462.3066 2.5413 0 1.3736-.04 1.5934-.3866 2.3627-.4267.9616-1.4267 2.033-2.3467 2.5138-.8667.4533-2.88.9341-4.36 1.044-2.2533.1511-5.24-.3434-6.7467-1.1401-1.0266-.522-2.12-1.7309-2.48-2.7062-.96-2.6649.4134-6.8821 3.32-10.1514l.8267-.9204H35.32l.68.7143Z" fill="#315BAF"/><path d="M30.7332 34.5667c-.1466.1511-.2666.3297-.2666.4121 0 .0687-.2267.2473-.4934.3984-1.44.7555-2.0533 2.5687-1.3866 4.0798.44.989 1.68 1.8407 2.7066 1.8407.5467 0 1.04.4945 1.04 1.044 0 .6456-.1866.9616-.6666 1.1402-.7467.261-1.2934-.1511-1.5334-1.1402-.24-.989-1.36-1.2088-1.7733-.3297-.3867.838.3467 2.5001 1.3467 3.0771.2933.1648.5866.4395.68.6181.3333.7006 1.32.6869 1.72-.0137.1333-.2198.32-.4121.4-.4121.3466 0 1.2133-.9066 1.5066-1.566.36-.8105.4-1.4561.12-2.2666-.4133-1.2363-1.2933-1.9506-2.64-2.1566-.8933-.1237-1.2266-.4396-1.2266-1.1539 0-.6869.4-1.099 1.0533-1.099.6 0 .9867.3297 1.0933.9341.2534 1.4836 1.92 1.5111 1.92.0275 0-1.044-.7333-2.2391-1.6133-2.6237-.2133-.0824-.3867-.2336-.3867-.316 0-.3022-.6-.7692-.9733-.7692-.2 0-.48.1236-.6267.2747ZM53.9735 43.427c-2.08.467-3.9733 1.9506-4.9466 3.8875-1.5467 3.0495-1.1067 6.47 1.1466 8.9701 2.8667 3.1869 7.8 3.2693 10.7734.1785 2.0133-2.1017 2.72-5.3298 1.7466-8.0497-1.3066-3.6952-5.0133-5.8107-8.72-4.9864Zm2.7867 1.8682c1.7333.3846 3.2133 1.5659 3.9733 3.2006.7734 1.6896.6934 3.7914-.2133 5.3848-.4667.8242-1.6667 1.9369-2.5467 2.3628-.6933.3296-.92.3708-2.3066.3708-1.4534 0-1.5734-.0274-2.4134-.4395-3.48-1.7583-4.2533-6.5799-1.48-9.341 1.3334-1.3462 3.2134-1.9232 4.9867-1.5385Z" fill="#315BAF"/><path d="M56.9334 47.8228c-1.1866.206-1.3333.2747-1.52.7143-.2266.5082.0267 1.0714.5867 1.305l.44.1785-.32.3847-.32.3846-.52-.4258c-.8267-.6869-1.2133-.577-2.24.6868-1.2933 1.5797-1.5467 2.0056-1.4533 2.3902.1333.5495.4533.783.9866.7418.4134-.0412.6-.1786 1.2267-.9616l.7333-.9066.4.3297c.9734.8104 1.3334.728 2.3467-.5495l.7067-.8792.16.3709c.2533.6182 1.1466.783 1.5866.2885.2134-.2473.2267-.4533.16-1.9369-.1066-2.1429-.2-2.3215-1.2666-2.3078-.4134.0138-1.1734.0962-1.6934.1924Z" fill="#315BAF"/></svg>