<svg width="90" height="90" fill="none" xmlns="http://www.w3.org/2000/svg"><path fill="#fff" d="M0 0h90v90H0z"/><path d="M15.4387 13.2015c-.7909.2375-1.6346.9373-2.0828 1.7372L13 15.576v57.4871l.3559.6373c.1978.3624.6064.8498.9228 1.0998 1.0414.8498.5536.8248 13.815.8248h11.9432l.2241.4374c.1186.2374.4086.5499.6459.6873.4218.25.6987.25 17.5456.25 18.6134 0 17.7038.0375 18.2179-.6999.2373-.3124.2637-.5873.2637-2.1745 0-1.5871-.0264-1.8621-.2637-2.1745-.29-.4124-.9227-.6998-1.5159-.6998h-.3955V54.7547h.5009c.2637 0 .6855-.1125.9228-.25.6723-.3874.8173-.8873.8173-2.6868 0-1.7122-.1318-2.2245-.6855-2.637-.1845-.1249-3.4142-1.5496-7.1975-3.1617l-6.8812-2.9119-.0263-13.7719-.0396-13.7594-.3559-.6373c-.4614-.8249-1.2919-1.4997-2.1355-1.7372-.9491-.2749-43.317-.2624-44.2398 0Zm6.3275 4.3741v2.6869h-6.8548v-1.9996c0-2.2745.1187-2.7119.8173-3.1243.3955-.2249.6591-.2499 3.2429-.2499h2.7946v2.6869Zm37.675-2.437c.6987.4124.8173.8498.8173 3.1243v1.9996H23.7436v-5.3738h17.6379c17.4401 0 17.6247 0 18.0597.2499Zm.7909 17.0837.0264 10.0227-.6196-.2499c-.3427-.1375-.8436-.2625-1.0941-.2625-.3296 0-2.7683.9748-8.6344 3.4617-4.4952 1.8996-8.4367 3.5867-8.753 3.7367-.9228.4249-1.0678.8123-1.0678 2.8619 0 2.2744.2636 2.7618 1.5423 2.9368l.6328.0875.0395 8.2231.0264 8.2107h-.4614c-1.0809 0-1.7796.7248-1.7796 1.8371v.6623H28.1992c-13.301 0-12.5759.05-13.0505-.8748-.2241-.4124-.2373-1.8871-.2373-25.5067 0-13.7844.0396-25.1069.0923-25.1444.0396-.05 10.2295-.075 22.634-.0625l22.5549.0375.0395 10.0228Zm6.3012 14.7591c4.3369 1.8496 8.028 3.4243 8.1993 3.5117.2637.1375.2901.2375.2901 1.2623v1.1247H42.0669v-2.312l2.0828-.8748c1.1337-.4749 4.7984-2.037 8.1335-3.4617 3.3351-1.4247 6.1298-2.5869 6.2089-2.5869.0791-.0125 3.691 1.4997 8.0412 3.3367ZM46.3907 63.0278l.0264 8.2232h-2.1092V54.7422l1.0282.0375 1.0151.0375.0395 8.2106Zm4.6402-.025v8.2482h-2.6365V54.7547h2.6365v8.2481Zm4.0865 0v8.2482h-2.1092v-8.1607c0-4.499.0396-8.2106.0923-8.2481.0396-.05.5141-.0875 1.0546-.0875h.9623v8.2481Zm4.7456 0v8.2482h-2.7683v-8.1607c0-4.499.0396-8.2106.0923-8.2481.0396-.05.6723-.0875 1.3842-.0875h1.2918v8.2481Zm4.0865 0v8.2482H61.8404V54.7547H63.9495v8.2481Zm4.7457 0v8.2482h-2.7683V54.7547h2.7683v8.2481Zm4.0865 0v8.2482h-2.1092V54.7547h2.1092v8.2481Zm2.241 11.1225v.9998H42.0669v-1.9995h32.9558v.9997Z" fill="#315BAF"/><path d="M28.2919 24.7237c-1.6478.2125-3.8493 1.1373-5.1675 2.1621-3.6515 2.8243-4.8247 7.6482-2.8606 11.7223 1.2128 2.5369 3.3879 4.3615 6.3012 5.2988 1.1073.3749 1.3314.3999 3.0451.3999 1.5555.0125 2.0169-.0375 2.9001-.2749 3.4274-.9373 6.077-3.4242 7.1843-6.711.3955-1.1872.501-3.5117.2241-4.7739-.2504-1.0623-.6986-2.162-1.2918-3.1368-.5669-.9123-2.6101-2.8369-3.5856-3.3868-1.9246-1.0747-4.5743-1.5871-6.7493-1.2997Zm3.1637 1.9746c2.7815.5499 5.2729 2.6369 6.222 5.2113.4482 1.2122.5537 3.1368.2505 4.4115-.29 1.1373-.9887 2.4745-1.7269 3.2743l-.6064.6498-.8436-.7998c-.4746-.4374-.9755-.8373-1.1205-.8748-.2637-.075-.2505-.1125.1714-.5998 1.9509-2.262 1.7927-5.2614-.3823-7.2109-.3955-.3499-1.0546-.7873-1.4633-.9748-.6854-.2999-.9095-.3374-2.2146-.3374-1.3578 0-1.5028.025-2.3333.3999-1.16.5124-2.1091 1.4122-2.6496 2.5119-.3955.7748-.4218.9373-.4218 2.1495 0 1.2123.0263 1.3747.4086 2.1246.2241.4499.6064 1.0372.8569 1.2997l.4482.4874-.3296.1874c-.1845.1125-.6855.5374-1.1205.9373l-.7909.7373-.435-.4874c-.6987-.7748-1.3051-1.7871-1.6874-2.8493-.3032-.8498-.3559-1.1997-.3691-2.3745 0-.9498.0791-1.5996.2373-2.1245 1.2919-4.1366 5.5498-6.611 9.8999-5.7487Zm-.2505 4.8614c1.1337.4999 2.0301 1.7996 2.0301 2.9493 0 .6874-.4086 1.6497-.9359 2.187-1.3051 1.3372-3.2692 1.4872-4.8247.3625-1.0414-.7499-1.4896-2.337-1.0414-3.6492.2636-.7498 1.0545-1.5747 1.8323-1.9121.8041-.3374 2.0828-.3124 2.9396.0625Zm-1.9246 8.1357c.3296.0375.8964.0125 1.2523-.05.5932-.1125.7383-.0875 1.4501.2249.7382.325 1.9114 1.2497 1.9114 1.4997 0 .175-1.1336.6373-2.2146.8998-1.7796.4249-3.7701.2499-5.4838-.4874l-.7778-.3374.3691-.4124c.6723-.7499 2.1883-1.5747 2.7024-1.4622.1054.025.4614.0875.7909.125ZM42.5288 27.6981c-.1846.1625-.3296.4499-.3296.6249 0 .1749.145.4624.3296.6248l.3164.3125h12.4177l.3427-.325c.2636-.2499.3164-.3874.2505-.7123-.1714-.8623.0527-.8373-6.8285-.8373h-6.1824l-.3164.3124ZM42.5288 32.4471c-.1846.1625-.3296.4499-.3296.6249 0 .1749.145.4624.3296.6248.3032.3.3823.3125 2.0169.3125 1.595 0 1.7137-.0125 1.9773-.2875.4087-.4124.3823-.9997-.0527-1.3247-.3164-.2374-.5273-.2624-1.9905-.2624-1.5556 0-1.6478.0125-1.951.3124ZM48.4605 32.4471c-.4482.4124-.435.9623.0132 1.2997.3295.25.5141.2625 3.5724.2625h3.2164l.3428-.3249c.2636-.25.3164-.3875.2505-.7124-.1582-.8123-.2769-.8373-3.8625-.8373h-3.2164l-.3164.3124ZM42.5288 37.1962c-.1846.1624-.3296.4499-.3296.6248 0 .175.145.4624.3296.6249l.3164.3124h12.4177l.3427-.3249c.2636-.25.3164-.3874.2505-.7124-.1714-.8623.0527-.8373-6.8285-.8373h-6.1824l-.3164.3125ZM23.4002 49.2811c-.3691.1624-.58.6123-.58 1.2247v.4999h-.5801c-.7777 0-1.8455.5499-2.3332 1.1872-.7778 1.0248-.8305 2.7869-.1187 3.8492.7646 1.1497 1.7137 1.4621 4.4293 1.4621 1.595 0 1.6214 0 1.8851.325.4218.4998.3822 1.5746-.0528 1.987-.3032.2999-.3823.3124-2.2278.3124h-1.8982l-.3428-.3874c-.1845-.2124-.3427-.5249-.3427-.6873 0-.3374-.5273-.9248-.8437-.9248-.3954 0-.8568.2874-1.0018.6373-.2109.4874.0263 1.4372.5404 2.0871.4878.6248 1.5424 1.1497 2.3201 1.1497h.5669v.4999c0 1.0998.8041 1.6871 1.5687 1.1622.29-.2124.3427-.3624.3822-.9622l.0396-.6999h.4745c.8437 0 1.5292-.2749 2.1751-.8873.7119-.6748.8964-1.1747.8964-2.4244 0-1.0248-.2768-1.6747-.9359-2.2745-.7382-.6624-1.226-.7873-3.111-.7873-2.0301 0-2.597-.125-2.8738-.6249-.3295-.6124-.2636-1.3372.1846-1.7621l.3823-.3624h1.8718c1.7928 0 1.8719.0125 2.1751.3124.1846.1625.3296.4124.3296.5499 0 .4124.2768.8498.6195.9998.4482.1999.6196.1749 1.0151-.125.6591-.4999.3955-1.8246-.5537-2.7244-.6459-.6124-1.3314-.8873-2.1882-.8873h-.4746v-.6749c0-.5873-.0527-.7123-.3427-.9372-.3823-.2875-.6328-.3125-1.0546-.1125ZM30.5459 50.1432c-.435.325-.4745.9873-.0791 1.3622.2505.2375.435.25 3.7306.25 3.9547 0 4.047-.025 4.047-.8748 0-.3749-.0791-.5374-.3428-.7374-.3295-.2499-.5141-.2624-3.6778-.2624-3.1638 0-3.3483.0125-3.6779.2624ZM30.5459 54.1423c-.435.3249-.4745.9872-.0791 1.3622.2505.2374.435.2499 3.757.2499 3.3219 0 3.5065-.0125 3.7569-.2499.3955-.375.356-1.0373-.0791-1.3622-.3295-.25-.5141-.2625-3.6778-.2625-3.1638 0-3.3483.0125-3.6779.2625ZM30.4931 58.1288c-.1845.1749-.29.4124-.29.6873 0 .275.1055.5124.29.6874.2769.2374.4482.2499 3.7306.2499s3.4538-.0125 3.7306-.2499c.1846-.175.29-.4124.29-.6874 0-.2749-.1054-.5124-.29-.6873-.2768-.2375-.4482-.25-3.7306-.25s-3.4537.0125-3.7306.25ZM30.4668 62.1278c-.3954.3749-.3559 1.0373.0791 1.3622.3296.2499.5141.2624 3.6779.2624 3.1637 0 3.3483-.0125 3.6778-.2624.4351-.3249.4746-.9873.0791-1.3622-.2504-.2374-.435-.2499-3.7569-.2499-3.322 0-3.5065.0125-3.757.2499ZM19.8417 66.9019c-.29.1249-.58.5873-.58.8998 0 .0874.1187.3124.2768.4998l.2637.325h8.9639c8.7794 0 8.9508 0 9.2145-.25.3954-.3749.3559-1.0372-.0791-1.3622-.3428-.2624-.4482-.2624-9.0694-.2499-5.708 0-8.8058.05-8.9904.1375ZM57.1341 45.8941c-.6327.3-1.305.9623-1.5687 1.5622-.1054.2374-.1845.7623-.1845 1.1747 0 1.8121 1.5159 3.1243 3.4274 2.9619.87-.075 1.3841-.3 1.9641-.8499.5932-.5623.8305-1.0622.9096-1.9245.1055-1.2497-.5932-2.412-1.7533-2.9244-.8041-.3624-2.0432-.3624-2.7946 0Zm2.2674 1.9371c.8964.9248-.2637 2.362-1.4237 1.7746-.4482-.2249-.6064-.4874-.6196-1.0123 0-.6623.4614-1.0872 1.1864-1.0872.4087 0 .6196.075.8569.3249Z" fill="#315BAF"/></svg>