<svg width="90" height="90" fill="none" xmlns="http://www.w3.org/2000/svg"><path fill="#fff" d="M0 0h90v90H0z"/><path d="m16.3698 13.0178.3135-.002c.3449-.0018.6898-.0009 1.0347 0a452.1226 452.1226 0 0 1 2.7611-.004c.5617.0004 1.1234-.0004 1.6851-.0011 1.3252-.0018 2.6504-.0016 3.9757-.0002 1.3664.0015 2.7328-.0003 4.0993-.0036 1.174-.0028 2.3479-.0036 3.5219-.0029.7009.0004 1.4017.0001 2.1025-.002.659-.002 1.3181-.0015 1.9771.0009.2416.0004.4831 0 .7247-.0013.3304-.0016.6606-.0002.991.002l.288-.0036c.8306.0114 1.4712.2867 2.0923.8384l.2388.2814.2446.2805c.4518.6296.4902 1.1929.4726 1.9516a81.0142 81.0142 0 0 1-.0156.9599l.4169-.0899c5.008-1.042 10.6234-1.5797 15.1136 1.2879 1.9435 1.277 3.6698 2.8168 5.324 4.4446l.2218.2173c4.2048 4.1383 6.4663 8.1201 6.5263 14.0958.0033 3.3556-.3596 6.7071-.9089 10.0133h-2.2452V32.2963H54.4777V19.5595H42.8771l.0079 2.5059c.0083 2.7293.0138 5.4586.018 8.1879.0025 1.6551.0061 3.3102.0118 4.9653.0049 1.4425.0082 2.8851.0093 4.3277.0006.7638.0021 1.5277.0058 2.2915.0034.7191.0044 1.4381.0037 2.1572.0001.2638.0011.5276.003.7913.0025.3606.0019.7211.0005 1.0817l.0044.3151c-.0093.9131-.3182 1.6765-.9765 2.323-.768.7227-1.656.9134-2.6901.9125l-.4437.0005-.4854-.0013a718.8813 718.8813 0 0 1-1.9142-.0016c-.436-.0007-.872-.0007-1.3081-.0008-1.2745-.0007-2.549-.0024-3.8235-.004l-8.6303-.0078v25.3487h44.6559V62.0155h2.2452V77H20.4245V49.4036h-4.4906c-1.3169-.3955-1.957-.6245-2.6263-1.7648-.1991-.3937-.2583-.7121-.2594-1.1464l-.0016-.3352v-.3686l-.0014-.3913a708.8973 708.8973 0 0 1-.0023-1.3045l-.0025-.9327c-.0024-.9346-.0037-1.8691-.0048-2.8037l-.0019-1.3205a5353.6148 5353.6148 0 0 1-.0048-4.3901l-.0007-1.1392-.0002-.286c-.001-1.5286-.0042-3.0573-.0083-4.586a1997.649 1997.649 0 0 1-.0067-4.709 803.403 803.403 0 0 0-.0046-2.6437c-.003-.829-.0034-1.6581-.0021-2.4871 0-.3043-.0008-.6085-.0025-.9127-.0022-.4156-.0013-.831.0003-1.2465L13 16.2712c.0085-.8945.2335-1.5206.773-2.2319l.2041-.2004.2013-.2054c.7007-.5218 1.3449-.6224 2.1914-.6157Zm-.8674 2.4734c-.2985.5005-.2609.9723-.2555 1.5451l-.0024.3803c-.002.4218-.0004.8436.0012 1.2654-.0007.3019-.0016.6038-.0027.9057-.002.7356-.0017 1.4712-.0003 2.2068a630.6443 630.6443 0 0 1 .0006 2.0511l-.0005.5183c-.0015 1.6203.0002 3.2407.0029 4.8611.0022 1.3907.0018 2.7814-.0005 4.1721-.0027 1.6145-.0037 3.229-.0022 4.8436l.0005.5163.0002.2567c.0004.5971-.0003 1.1943-.0015 1.7914-.0015.8036-.0004 1.6071.0025 2.4106.0007.2954.0005.5908-.0006.8862-.0014.4023.0003.8045.0028 1.2068l-.0034.3567c.0029.6357.0029.6357.2968 1.1845.5096.3433.988.3243 1.5789.3235l.2914.0012c.3232.0011.6463.0012.9695.0014l.694.0019c.6291.0016 1.2582.0025 1.8873.003l1.1785.0014c1.2286.0018 2.4572.003 3.6858.0034 1.4192.0006 2.8385.0028 4.2577.0064 1.0965.0027 2.1929.004 3.2893.0041.6552.0002 1.3103.0009 1.9654.0031.6162.0021 1.2323.0024 1.8485.0013.2262-.0001.4524.0004.6786.0016.3087.0016.6173.0009.926-.0004l.2717.003c.6921-.0068 1.085-.1887 1.569-.6732.0379-.2357.0379-.2357.032-.5091l.0025-.3248-.0012-.359.0017-.3797c.0016-.4226.0014-.8451.0012-1.2677.0007-.3019.0016-.6037.0025-.9056.002-.7365.0028-1.473.0029-2.2094.0002-.5985.0007-1.1971.0015-1.7956.0022-1.6958.0033-3.3917.0031-5.0875v-.5548c-.0001-1.4846.0022-2.9692.0058-4.4538.0035-1.5234.0053-3.0468.005-4.5702 0-.8557.0007-1.7113.0033-2.567.0025-.8045.0025-1.6091.0007-2.4136-.0003-.2958.0003-.5916.0018-.8874.0019-.4029.0008-.8056-.0012-1.2085l.0039-.3572c-.005-.4743-.012-.7775-.2576-1.1896-.4254-.2456-.8092-.2464-1.287-.2406a1265.11 1265.11 0 0 0-.3012-.0024c-.3334-.002-.6668-.0004-1.0003.0012a428.0583 428.0583 0 0 1-.7167-.0027 324.168 324.168 0 0 0-1.9475.0002c-.6788.0013-1.3577.0001-2.0365-.0007-1.14-.0009-2.2801.0003-3.4201.0027a966.193 966.193 0 0 1-3.9563-.0009c-1.1315-.0023-2.263-.0026-3.3945-.0013a548.534 548.534 0 0 1-2.0283-.0008 281.8446 281.8446 0 0 0-1.9068.0025 96.2437 96.2437 0 0 1-.7006-.0007 79.9538 79.9538 0 0 0-.9547.0029l-.2814-.0034c-.3926.006-.6634.0464-1.0055.2441Zm41.2205 5.6916v8.8658h8.8564c-.5079-.5931-1.0136-1.1576-1.5643-1.7069l-.2357-.2366a550.026 550.026 0 0 0-.7635-.7641l-.5328-.5338c-.3707-.3712-.7415-.7422-1.1126-1.113-.4766-.4765-.9527-.9535-1.4286-1.4307-.3659-.3667-.732-.7331-1.0982-1.0994a656.1056 656.1056 0 0 1-.5272-.528 507.3215 507.3215 0 0 0-.7336-.7335l-.2213-.2223c-.2743-.3407-.2743-.3407-.6386-.4975Z" fill="#315BAF"/><path d="M75.2384 46.3365c.8203.5049 1.4514 1.2609 1.6918 2.193.0463.3844.0463.3844.0545.7804l.0151.3922c-.2333 1.5094-1.3786 2.4876-2.4005 3.523-.1763.1807-.3524.3616-.5284.5426a414.3588 414.3588 0 0 1-1.7385 1.7697l-.6044.6137a982.2808 982.2808 0 0 1-2.5264 2.5566 529.6668 529.6668 0 0 0-3.5801 3.6402 328.9622 328.9622 0 0 1-2.536 2.5726c-.5044.5068-1.0065 1.0154-1.5028 1.5301-2.6805 2.7752-5.2602 4.5959-8.8791 5.9692a27.435 27.435 0 0 0-.581.2317c-.4487.1746-.7821.1487-1.2625.1029-.3995-.2564-.4805-.4299-.6017-.8877-.0331-.7336.2645-1.2341.5831-1.8811.296-.6081.5633-1.212.7897-1.8495 1.0784-2.8671 3.1041-4.7632 5.2551-6.8694.5198-.5108 1.0344-1.0268 1.5497-1.5421a535.1193 535.1193 0 0 1 2.5993-2.5765c1.1142-1.0972 2.2225-2.2003 3.3291-3.3053a1269.701 1269.701 0 0 1 2.874-2.8582c.3065-.3042.6125-.6088.9186-.9134.4805-.478.9626-.9542 1.4461-1.4293.1766-.174.3528-.3486.5284-.5237.2404-.2395.4826-.477.7253-.7141l.2074-.2092c1.0902-1.0521 2.7361-1.4758 4.1742-.8584Zm-2.2998 2.3179c-.2231.241-.4218.4893-.6237.7492l1.2474 1.2487c.5472-.2739.777-.4992 1.1226-.999.0936-.3853.0936-.3853 0-.7492-.2415-.3313-.4214-.4696-.803-.6165-.4342-.0106-.6008.101-.9433.3668Zm-2.37 2.3725-.499.6244L71.317 52.9c.5144-.2059.5144-.2059.7484-.6244a132.558 132.558 0 0 0-.6081-.6243l-.342-.3512c-.2606-.3013-.2606-.3013-.5467-.2732Zm-2.7792 2.7429-.3396.3329-.3736.3702a715.976 715.976 0 0 1-.3929.3865c-.4315.4248-.8617.8511-1.2918 1.2775l-.2223.2203c-.6932.687-1.386 1.3744-2.0776 2.0631a596.9033 596.9033 0 0 1-2.6526 2.6255 346.8553 346.8553 0 0 0-1.8675 1.8517 144.598 144.598 0 0 1-1.1138 1.1015c-1.625 1.5889-3.0201 3.0377-3.7286 5.259 1.6494-.4953 2.8222-1.2141 4.0261-2.4468.1327-.1332.2657-.2661.3988-.399.3572-.3574.7121-.717 1.0666-1.0772.3723-.3773.7466-.7525 1.1208-1.1279a818.094 818.094 0 0 0 2.115-2.1333c.8021-.8114 1.6064-1.6207 2.4109-2.4298a2621.185 2621.185 0 0 0 4.9529-4.9958l-.3567-.4181-.2006-.2351c-.2196-.2538-.4397-.4966-.6901-.7204-.3846 0-.5132.229-.7834.4952ZM43.9637 53.3968c2.3393 1.8251 3.8806 4.411 4.2773 7.3699.2165 3.2861-.5798 6.1121-2.7443 8.6161l-.2163.2546c-1.5859 1.7213-4.1487 2.9813-6.4706 3.139-3.2962.0726-6.1224-.5124-8.605-2.8483l-.3002-.2956-.2923-.2878c-1.9615-2.051-2.835-4.7744-2.8261-7.579.0926-2.5734 1.0233-4.9412 2.7442-6.8679l.2792-.3151c1.1682-1.2441 2.5961-2.1361 4.2113-2.6818l.4318-.1483c3.2157-.9558 6.8133-.3544 9.511 1.6442Zm-12.9744 3.3077c-1.2904 1.5013-1.9088 3.3876-1.8877 5.3499l.0032.3799c.0508 2.2499.9511 4.1194 2.5461 5.6998l.251.2639c1.59 1.5614 3.7394 2.174 5.9144 2.1614 2.4243-.07 4.4888-1.1344 6.1446-2.8858 1.5711-1.9054 2.2214-4.2121 2.0348-6.6572-.3133-2.3661-1.6219-4.414-3.4926-5.8689-3.7603-2.7453-8.5219-1.6514-11.5138 1.557ZM16.1836 16.188h23.5753v7.6171H16.1836V16.188Zm2.2453 2.2477v3.1217h19.0847v-3.1217H18.4289Z" fill="#315BAF"/><path d="M36.391 55.6472h2.2452l.1248 1.1239.265.0829c1.1445.3829 1.9579.8445 2.6151 1.875.1661.4239.1935.836.2383 1.2887-.3614.0169-.722.0292-1.0836.039l-.3087.0159c-.5503.0111-.7718.0138-1.2062-.3539l-.2704-.3254c-.6703-.414-1.4555-.432-2.2141-.2887-.4782.1215-.7955.3162-1.1538.6633.0457.332.0913.47.3459.6956.2892.1859.4874.2521.8235.3112l.3313.061c.2616.0396.5243.0725.7874.1005 1.2338.138 2.402.4353 3.2704 1.3838.5645.7618.8155 1.5021.6783 2.4428-.2399.9003-.7338 1.4801-1.4968 1.9979-.5552.3047-1.114.5427-1.7464.6244v1.1238H36.391l-.1248-1.1238-.2694-.0874c-1.24-.4226-1.899-.8233-2.5912-1.9486-.133-.3366-.133-.3366-.133-1.2107h2.2452l.1248.4995c.2664.1571.2664.1571.6236.2497l.46.1483c.7664.1828 1.4904.0873 2.2219-.1873.3207-.2167.4367-.3483.5613-.7102-.6861-.7632-1.4235-.7998-2.3934-.9131-1.4526-.1913-2.5192-.5388-3.4692-1.7092-.5163-.7002-.4805-1.5381-.3742-2.3725.28-.7891.9343-1.4186 1.6215-1.8731.4485-.2007.9013-.36 1.3721-.4994l.1248-1.1239ZM27.9478 39.6325l.4627-.0078.448-.002.4085-.0035c.6359.0729 1.0316.314 1.4796.7625.5499.7952.5727 1.5744.5691 2.5131l.0061.3204c.0006.7788-.0645 1.6474-.5872 2.2666-.859.7562-1.725.7208-2.8102.722l-.438.0093c-.8457.0029-1.3896-.0413-2.0723-.5556-.7786-.8005-.7909-1.6727-.7874-2.7315l-.0061-.3615c-.0006-.852.0664-1.6035.6337-2.2837l.2222-.1722.2222-.179c.6523-.429 1.501-.294 2.2491-.2971Zm-1.0369 2.2789v1.9979h2.1206v-1.9979h-2.1206ZM27.9478 32.1246l.4169-.0093c1.005-.0036 1.7145.1178 2.4599.8444.4703.7786.4945 1.5558.4911 2.4427l.0061.3205c.0007.8383-.0944 1.6678-.638 2.3369l-.2256.1678-.2266.1756c-.5948.4017-1.2785.2942-1.9749.2983-.2517.0022-.5031.0077-.7547.0132l-.4839.0031-.4425.0056c-.6303-.0896-1.0121-.4003-1.4422-.8548-.5152-.7737-.5097-1.5356-.5067-2.4349l-.0061-.3615c-.0005-.7903.0365-1.5932.5872-2.2168.8445-.7478 1.6689-.7296 2.74-.7308Zm-1.0369 2.2945v1.9979h2.1206v-1.9979h-2.1206ZM35.3771 24.6401l.3611-.0061c.8505-.0005 1.6069.0636 2.2813.6388l.172.2258.1788.2268c.4103.5899.2983 1.2813.3024 1.9771.0021.2519.0076.5036.0131.7555l.0032.4843.0055.443c-.0891.6281-.4001 1.0094-.8461 1.4437-.7504.4892-1.5165.5078-2.3855.4995l-.3053.0029c-.8428-.0027-1.5796-.0816-2.2986-.557-.7917-.8294-.7711-1.6825-.764-2.7784l-.0076-.4138c.0006-.9983.1263-1.7186.8573-2.4504.7866-.4874 1.5336-.4947 2.4324-.4917Zm-.9823 2.2867v2.1228h1.9958v-2.1228h-1.9958ZM27.9477 24.6481l.3447-.0078c.9023-.0052 1.6057.1172 2.3372.6868.6248.8042.7073 1.6072.6938 2.591l.0044.3188c-.0041.892-.1536 1.6935-.6904 2.4206-.8028.594-1.691.7011-2.6663.6868l-.2987.0044c-.8715-.0043-1.6651-.1639-2.3676-.699-.6335-.8394-.6963-1.6531-.6782-2.6691l-.0012-.3432c.0076-.9566.093-1.7424.7886-2.4586.783-.5628 1.6059-.5255 2.5337-.5307Zm-1.0369 2.2789v2.1228h2.1206V26.927h-2.1206ZM20.5338 24.6401l.361-.0061c.7894-.0005 1.5916.0366 2.2145.5878.747.8454.7287 1.6707.73 2.743l.0092.4173c.0035.9541-.1045 1.6811-.7684 2.3957l-.2075.1371-.2057.1439c-.668.3079-1.4351.2652-2.1565.2697l-.3038.0078c-.8251.0053-1.6385-.097-2.2962-.6326l-.1676-.2259-.1755-.2268c-.4012-.5954-.2938-1.2799-.2979-1.977a55.9851 55.9851 0 0 0-.0132-.7555l-.0031-.4844-.0055-.443c.0894-.6309.3998-1.0131.8538-1.4437.7729-.5158 1.534-.5103 2.4324-.5073Zm-.9824 2.2867v2.1228h1.9958v-2.1228h-1.9958ZM35.4161 39.6169l.4563-.0141c.9092-.009 1.591.032 2.2645.6853.6533.7804.5778 1.6316.5691 2.6145l.009.468c-.0012.7887-.0151 1.4497-.5065 2.0933-.7015.6921-1.4409.7548-2.3982.7553l-.4332-.0076-.4361.0027c-.859-.0064-1.4887-.0433-2.1507-.6421l-.1808-.219-.1856-.2181c-.4304-.6525-.3021-1.5233-.3055-2.2716a764.8847 764.8847 0 0 1-.0078-.4253c-.0041-.8577.0219-1.4758.6275-2.133l.2222-.181.2222-.1858c.6347-.4433 1.4944-.3129 2.2336-.3215Zm-1.0213 2.2945v1.9979h1.9958v-1.9979h-1.9958ZM20.4636 39.6324l.4626-.0078.4481-.0019.4084-.0036c.6494.0745 1.1358.3467 1.5498.8484l.1857.218c.4176.6332.3067 1.4662.3133 2.1936l.0109.4009c.0074.9073-.0883 1.6449-.7339 2.3217-.7738.679-1.5434.5862-2.5202.5942l-.4383.011c-.8869.0066-1.4696-.0651-2.2201-.5495-.7738-.8143-.6506-1.6584-.6549-2.7237l-.0078-.4812-.0019-.4656-.0036-.4247c.0595-.5355.2418-.9551.6058-1.3547.8386-.6536 1.5692-.5708 2.5961-.5751Zm-.9122 2.2789v1.998h1.9958v-1.998h-1.9958ZM35.4241 32.1323l.4186-.0109c.8198-.0064 1.5144.0146 2.1697.5494.5459.5383.6628 1.078.7021 1.8307.0005.3081-.0023.6162-.0083.9243l.0042.4695c-.0069.8621-.0436 1.452-.5733 2.145-.8202.761-1.6392.6593-2.7052.6712l-.4743.0141c-.7976.0076-1.4653.0134-2.1166-.4877-.6694-.6879-.7549-1.4094-.7595-2.3453l.0059-.4122-.0059-.4121c.0044-.9106.11-1.6567.7477-2.3416.7741-.6912 1.6098-.5859 2.5949-.5944ZM34.395 34.419v1.998h1.9958v-1.998H34.395ZM20.4866 32.1091l.4118-.0058c.8556.0041 1.4184.1093 2.1453.5677.7984.8203.7907 1.6453.7874 2.7316l.0061.4024c.0006.9548-.0816 1.5957-.7233 2.3369-.7856.6714-1.5525.5645-2.5493.562l-.479.0061-.4633.0002-.422.0011c-.5329-.0623-.9532-.245-1.3512-.6084-.6588-.847-.5785-1.6072-.59-2.6457l-.0142-.4748c-.0075-.7984-.0134-1.4668.4872-2.1188.7948-.7752 1.6929-.7696 2.7545-.7545Zm-.9355 2.3101v1.998h1.9958v-1.998h-1.9958ZM51.3594 48.1548h12.8479v2.2477H51.3594v-2.2477ZM51.3594 43.9092h12.8479v2.2477H51.3594v-2.2477ZM51.3594 39.6636h12.8479v2.2476H51.3594v-2.2476ZM51.3594 35.418h12.8479v2.2476H51.3594V35.418ZM47.1182 48.1548h2.2452v2.2477h-2.2452v-2.2477ZM47.1182 43.9092h2.2452v2.2477h-2.2452v-2.2477ZM47.1182 39.6636h2.2452v2.2476h-2.2452v-2.2476ZM47.1182 35.418h2.2452v2.2476h-2.2452V35.418Z" fill="#315BAF"/></svg>