<svg width="281" height="319" viewBox="0 0 281 319" fill="none" xmlns="http://www.w3.org/2000/svg">
<path d="M77 75H222V242H77V75Z" fill="#FFFF"/>
<path d="M275.68 89.18C275.49 87.63 275.33 85.85 275.33 85.27C275.33 84.58 275.02 83.39 274.48 82.04C273.8 80.27 273.37 79.58 272.08 78.16L270.5 76.44L206.64 39.39C171.52 19.01 142.12 1.97001 141.29 1.54001C140.46 1.09001 139.97 0.880009 139.36 0.790009C139.05 0.740009 138.7 0.730011 138.26 0.730011C136.92 0.730011 136.49 0.849996 135.15 1.59C115.98 12.28 6.44001 75.87 5.03001 77.13C3.67001 78.32 2.55998 80.13 1.93998 82.08H1.92997C1.78997 82.5 1.68001 82.92 1.59001 83.35C1.22001 85.25 1.18995 89.99 1.09995 158.46C1.04995 213.44 1.09996 232.03 1.28996 233.53C1.51996 235.13 1.73 235.75 2.46 236.86C3.78 238.91 6.06 241.29 7.71 242.34C9.73 243.63 30.1 255.44 30.88 255.79C31.23 255.94 54.33 269.29 82.2 285.46C110.08 301.62 133.48 315.1 134.19 315.41C135.22 315.84 135.93 315.96 137.72 315.93C139.2 315.93 140.09 315.84 140.35 315.62C140.59 315.46 140.71 315.24 140.61 315.17C140.54 315.08 140.59 315 140.75 315C140.92 315 140.96 314.91 140.89 314.77C140.82 314.65 140.87 314.53 141.01 314.53C141.15 314.53 141.2 314.43 141.13 314.29C141.06 314.17 141.08 314.05 141.2 314.05C141.32 314.05 142.75 311.67 144.37 308.77C147.76 302.62 154.94 290.17 159.59 282.27C161.36 279.27 164.77 273.27 167.12 268.93C169.5 264.63 173.35 257.82 175.71 253.82C178.06 249.82 182.67 241.96 185.92 236.34C191.23 227.2 194.24 221.89 208.17 197.15C218.92 178.08 223.72 169.94 225.22 168.27C228.23 164.94 231.97 164.72 234.58 167.72C235.74 169.06 246.75 187.94 257.02 206.2C263.12 217.01 270.81 230.41 272.57 233.29C273.3 234.48 273.94 235.25 274.17 235.25C274.69 235.25 274.93 233.75 275.56 226.51C276.01 221.15 276.03 219.29 276.03 156.51C276.03 100.8 275.98 91.65 275.68 89.18ZM180.87 211.76C180.63 214.83 178.92 216.87 175.66 217.95L174.07 218.48L145.72 218.46C115.01 218.43 116.21 218.48 114.17 217.14C113.09 216.42 112.2 215 111.67 213.15C111.34 212 111.29 207.85 111.19 178.34C111.14 159.92 111.17 136.25 111.26 125.76L111.36 113.47C101.97 113.36 102.48 113.04 100.95 111.68C99.45 110.34 98.81 108.7 98.95 106.63C99.19 103.58 100.86 101.56 104.06 100.49L105.61 99.96L133.39 99.99C163.48 100.01 162.3 99.96 164.3 101.3C165.36 102.01 166.23 103.42 166.74 105.25C167.07 106.39 167.12 110.51 167.22 139.77C167.26 158.03 167.24 181.51 167.14 191.91L167.04 204.85C177.83 204.94 177.21 205.25 178.83 206.67C180.36 208.01 181.01 209.67 180.87 211.76ZM152.47 113.99C152.21 113.63 150.33 113.58 128.19 113.54C127.39 113.54 126.61 113.54 125.86 113.53C125.92 120.28 125.93 132.62 125.93 155.29C125.93 193.82 126.01 204.03 126.25 204.34C126.51 204.7 128.43 204.75 151.02 204.8H152.85C152.79 198.28 152.77 185.99 152.77 162.63C152.77 124.42 152.7 114.3 152.47 113.99Z" fill="#315BAF"/>
<path d="M152.77 162.63C152.77 124.42 152.7 114.3 152.47 113.99C152.21 113.63 150.33 113.58 128.19 113.54C127.39 113.54 126.61 113.54 125.86 113.53C125.92 120.28 125.93 132.62 125.93 155.29C125.93 193.82 126.01 204.03 126.25 204.34C126.51 204.7 128.43 204.75 151.02 204.8H152.85C152.79 198.28 152.77 185.99 152.77 162.63ZM280.55 83.79C280.31 82.18 280.09 81.56 279.35 80.43C278.01 78.37 275.68 75.97 274 74.91C271.93 73.61 251.14 61.7 250.35 61.34C249.99 61.2 226.41 47.73 197.96 31.43C169.51 15.13 145.62 1.54002 144.9 1.23002C143.84 0.790021 143.12 0.670022 141.3 0.700022C140.47 0.700022 139.82 0.730009 139.36 0.790009C138.98 0.840009 138.73 0.910019 138.61 1.01002C138.37 1.18002 138.25 1.39001 138.35 1.47001C138.42 1.56001 138.37 1.63001 138.2 1.63001C138.03 1.63001 137.99 1.73 138.06 1.87C138.13 1.99 138.08 2.10999 137.94 2.10999C137.79 2.10999 137.75 2.21002 137.82 2.35002C137.89 2.47002 137.87 2.59001 137.75 2.59001C137.63 2.59001 136.16 5.00002 134.51 7.92002C131.05 14.12 123.73 26.68 118.97 34.65C117.17 37.67 113.69 43.72 111.29 48.09C108.86 52.44 104.93 59.3 102.53 63.34C100.12 67.37 95.42 75.29 92.11 80.96C86.68 90.18 83.61 95.53 69.39 120.48C58.42 139.71 53.52 147.92 51.99 149.6C48.91 152.96 45.1 153.18 42.43 150.15C41.25 148.81 30.02 129.77 19.53 111.35C13.31 100.45 5.45997 86.94 3.65997 84.03C2.90997 82.83 2.26002 82.06 2.02002 82.06C1.99002 82.06 1.95998 82.06 1.93998 82.08H1.92997C1.46997 82.27 1.21999 84.04 0.609985 90.87C0.149985 96.28 0.130005 98.15 0.130005 161.46C0.130005 217.64 0.17999 226.86 0.48999 229.36C0.67999 230.92 0.849976 232.72 0.849976 233.3C0.849976 233.99 1.16002 235.19 1.71002 236.56C2.41002 238.34 2.83997 239.03 4.15997 240.47L5.77002 242.2L70.95 279.56C106.8 300.11 136.81 317.3 137.65 317.73C138.95 318.43 139.43 318.55 140.75 318.55C142.07 318.55 142.55 318.43 143.92 317.69C163.48 306.91 275.29 242.78 276.73 241.51C278.41 240.04 279.73 237.66 280.24 235.24C280.62 233.32 280.65 228.54 280.74 159.49C280.79 104.06 280.74 85.3 280.55 83.79ZM180.87 211.76C180.63 214.83 178.92 216.87 175.66 217.95L174.07 218.48L145.72 218.46C115.01 218.43 116.21 218.48 114.17 217.14C113.09 216.42 112.2 215 111.67 213.15C111.34 212 111.29 207.85 111.19 178.34C111.14 159.92 111.17 136.25 111.26 125.76L111.36 113.47L111.41 106.67L112.13 104.92C113.07 102.62 113.93 101.61 115.71 100.77C117.77 99.78 119.48 99.81 121.42 100.84C123.29 101.85 125.09 103.82 125.57 105.4C125.72 105.92 125.81 107.51 125.86 113.53C125.92 120.28 125.93 132.62 125.93 155.29C125.93 193.82 126.01 204.03 126.25 204.34C126.51 204.7 128.43 204.75 151.02 204.8H152.85C159.03 204.82 163.61 204.82 167.04 204.85C177.83 204.94 177.21 205.25 178.83 206.67C180.36 208.01 181.01 209.67 180.87 211.76Z" fill="#071C82"/>
<path d="M142.73 318.55C144.07 318.55 144.5 318.43 145.84 317.69C165.01 307 274.57 243.44 275.98 242.18C277.34 240.99 278.45 239.18 279.07 237.23C279.05 237.25 279.02 237.25 278.99 237.25C278.75 237.25 278.1 236.48 277.35 235.28C275.55 232.37 267.7 218.86 261.49 207.96C251 189.54 239.78 170.49 238.6 169.15C235.93 166.12 232.12 166.34 229.04 169.7C227.51 171.38 222.61 179.59 211.63 198.82C197.4 223.77 194.33 229.12 188.9 238.33C185.59 244 180.89 251.92 178.48 255.95C176.08 259.99 172.15 266.85 169.72 271.2C167.32 275.57 163.84 281.62 162.04 284.64C157.28 292.61 149.95 305.17 146.49 311.37C144.84 314.29 143.37 316.7 143.25 316.7C143.13 316.7 143.11 316.82 143.18 316.94C143.25 317.08 143.21 317.18 143.06 317.18C142.92 317.18 142.87 317.3 142.94 317.42C143.01 317.56 142.97 317.66 142.8 317.66C142.63 317.66 142.58 317.73 142.65 317.82C142.75 317.9 142.63 318.11 142.39 318.28C142.27 318.38 142.02 318.45 141.64 318.5C141.95 318.55 142.3 318.56 142.74 318.56L142.73 318.55Z" fill="#041056"/>
</svg>
